####
#
#	OBJ File Generated by LightWave3D
#	LightWave3D OBJ Export v2.3
#
####
o rock.obj
mtllib rock.mtl
g default
v -0.2 2.98023e-009 0.2
v -0.2 2.98023e-009 0.0833333
v -0.225 2.98023e-009 -0.0833333
v -0.175 2.98023e-009 -0.2
v -0.175 0.0666667 -0.2
v -0.175 0.108333 -0.175
v -0.1 0.2 -0.225
v -0.225 0.3 -0.0833333
v -0.225 0.3 0.0833333
v -0.2 0.25 0.125
v -0.175 0.108333 0.2
v -0.225 0.0666667 0.2
v -0.225 0.0666667 0.0833333
v -0.175 0.108333 0.0833333
v -0.25 0.0666667 -0.0833333
v -0.175 0.108333 -0.0833333
v -0.0833333 2.98023e-009 0.2
v -0.0833333 2.98023e-009 -0.25
v -0.0833333 0.0666667 -0.175
v -0.0833333 0.158333 -0.25
v -0.0833333 0.35 -0.15
v -0.0833333 0.395 -0.0833333
v -0.0833333 0.395 0.0833333
v -0.0833333 0.35 0.125
v -0.0833333 0.158333 0.25
v -0.0833333 0.0666667 0.25
v 0.0833333 2.98023e-009 0.2
v 0.0833333 2.98023e-009 -0.25
v 0.0833333 0.0666667 -0.2
v 0.0833333 0.158333 -0.25
v 0.0833333 0.35 -0.15
v 0.0833333 0.395 -0.0833333
v 0.0833333 0.395 0.0833333
v 0.0833333 0.35 0.125
v 0.0833333 0.158333 0.15
v 0.0833333 0.0666667 0.2
v 0.175 2.98023e-009 0.2
v 0.225 2.98023e-009 0.0833333
v 0.25 2.98023e-009 -0.0833333
v 0.225 2.98023e-009 -0.2
v 0.175 0.0666667 -0.225
v 0.225 0.208333 -0.15
v 0.175 0.25 -0.175
v 0.25 0.3 0.0416667
v 0.225 0.275 0.0833333
v 0.175 0.25 0.125
v 0.175 0.158333 0.2
v 0.125 0.0666667 0.2
v 0.175 0.0666667 0.0833333
v 0.225 0.208333 0.0833333
v 0.2 0.0666667 -0.0833333
v 0.25 0.208333 -0.0833333
vt 0.0077392 0.195265
vt 0.0217106 0.0389606
vt 0.0217106 0.663881
vt 0.0268428 0.171348
vt 0.132189 0.150587
vt 0.132189 0.663881
vt 0.138432 0.0105859
vt 0.146161 0.195265
vt 0.163942 0.56213
vt 0.190112 0.198701
vt 0.199262 0.0831637
vt 0.199262 0.987873
vt 0.209629 0.250983
vt 0.230004 0.882915
vt 0.260093 0.0105859
vt 0.271468 0.171348
vt 0.271468 0.352677
vt 0.383057 0.0105859
vt 0.383057 0.12665
vt 0.400547 0.319703
vt 0.408567 0.146653
vt 0.413146 0.882915
vt 0.433521 0.0666948
vt 0.433521 0.353198
vt 0.443888 0.987873
vt 0.469607 0.575619
vt 0.496989 0.0990161
vt 0.510961 0.0389606
vt 0.510961 0.464326
vt 0.510961 0.613544
vt 0.540481 0.652147
vt 0.616307 0.0644397
vt 0.616307 0.459948
vt 0.627682 0.12665
vt 0.657771 0.458812
vt 0.679362 0.0992459
vt 0.688512 0.555505
vt 0.688512 0.987873
vt 0.707879 0.187784
vt 0.731853 0.84524
vt 0.749343 0.12665
vt 0.760718 0.0644397
vt 0.760718 0.352677
vt 0.860932 0.0644397
vt 0.860932 0.352677
vt 0.875956 0.44397
vt 0.880036 0.0990161
vt 0.889797 0.84524
vt 0.922771 0.0666948
vt 0.922771 0.173154
vt 0.933137 0.239599
vt 0.933137 0.987873
vt 0.966239 0.195265
vt 0.980211 0.0389606
vt 0.980211 0.663881
vt 0.984661 0.295265
vt 0.985343 0.171348
vt 0.987762 0.987873
vt 0.990689 0.190587
vt 0.990689 0.673881
vn -0.679752 0.28407 0.676196
vn -0.963993 0.255988 0.0720225
vn -0.934051 -0.350269 0.0697118
vn -0.662085 -0.248282 0.707107
vn -0.772109 0.388949 0.50256
vn -0.945634 0.324026 0.0279863
vn -0.963993 0.255988 0.0720225
vn -0.679752 0.28407 0.676196
vn -0.762916 0.229285 0.604473
vn -0.92709 0.276582 0.252996
vn -0.945634 0.324026 0.0279863
vn -0.772109 0.388949 0.50256
vn -0.963993 0.255988 0.0720225
vn -0.942936 0.301256 -0.141832
vn -0.929479 -0.348555 -0.120743
vn -0.934051 -0.350269 0.0697118
vn -0.945634 0.324026 0.0279863
vn -0.938912 0.338415 -0.0626007
vn -0.942936 0.301256 -0.141832
vn -0.963993 0.255988 0.0720225
vn -0.92709 0.276582 0.252996
vn -0.927908 0.287849 -0.236916
vn -0.938912 0.338415 -0.0626007
vn -0.945634 0.324026 0.0279863
vn -0.942936 0.301256 -0.141832
vn -0.521918 0.332706 -0.785435
vn -0.721878 -0.174529 -0.669651
vn -0.929479 -0.348555 -0.120743
vn -0.938912 0.338415 -0.0626007
vn -0.644303 0.426424 -0.634852
vn -0.521918 0.332706 -0.785435
vn -0.942936 0.301256 -0.141832
vn -0.927908 0.287849 -0.236916
vn -0.798027 0.186819 -0.572932
vn -0.644303 0.426424 -0.634852
vn -0.938912 0.338415 -0.0626007
vn -0.521918 0.332706 -0.785435
vn -0.113549 0.191918 -0.97482
vn -0.269099 0.42002 -0.8667
vn -0.721878 -0.174529 -0.669651
vn -0.644303 0.426424 -0.634852
vn -0.171026 0.150338 -0.973729
vn -0.113549 0.191918 -0.97482
vn -0.521918 0.332706 -0.785435
vn -0.798027 0.186819 -0.572932
vn -0.286252 0.547394 -0.786397
vn -0.171026 0.150338 -0.973729
vn -0.644303 0.426424 -0.634852
vn -0.260116 0.896249 -0.359273
vn -0.286252 0.547394 -0.786397
vn -0.798027 0.186819 -0.572932
vn -0.927908 0.287849 -0.236916
vn -0.274369 0.855393 0.439345
vn -0.260116 0.896249 -0.359273
vn -0.927908 0.287849 -0.236916
vn -0.92709 0.276582 0.252996
vn -0.144496 0.531067 0.834918
vn -0.274369 0.855393 0.439345
vn -0.92709 0.276582 0.252996
vn -0.762916 0.229285 0.604473
vn -0.0424841 0.327423 0.943922
vn -0.144496 0.531067 0.834918
vn -0.762916 0.229285 0.604473
vn -0.772109 0.388949 0.50256
vn -0.00596935 -0.0629258 0.998
vn -0.0424841 0.327423 0.943922
vn -0.772109 0.388949 0.50256
vn -0.679752 0.28407 0.676196
vn 0 -0.316228 0.948683
vn -0.00596935 -0.0629258 0.998
vn -0.679752 0.28407 0.676196
vn -0.662085 -0.248282 0.707107
vn -0.113549 0.191918 -0.97482
vn -0.0249264 0.0750483 -0.996868
vn 0.137841 0.672052 -0.727562
vn -0.269099 0.42002 -0.8667
vn -0.171026 0.150338 -0.973729
vn 0.0215762 -0.0639224 -0.997722
vn -0.0249264 0.0750483 -0.996868
vn -0.113549 0.191918 -0.97482
vn -0.286252 0.547394 -0.786397
vn 0.293 0.628849 -0.720208
vn 0.0215762 -0.0639224 -0.997722
vn -0.171026 0.150338 -0.973729
vn 0.364133 0.891004 -0.271145
vn 0.293 0.628849 -0.720208
vn -0.286252 0.547394 -0.786397
vn -0.260116 0.896249 -0.359273
vn 0.355192 0.854741 0.378492
vn 0.364133 0.891004 -0.271145
vn -0.260116 0.896249 -0.359273
vn -0.274369 0.855393 0.439345
vn 0.161986 0.520372 0.838435
vn 0.355192 0.854741 0.378492
vn -0.274369 0.855393 0.439345
vn -0.144496 0.531067 0.834918
vn 0.0717908 0.297658 0.951969
vn 0.161986 0.520372 0.838435
vn -0.144496 0.531067 0.834918
vn -0.0424841 0.327423 0.943922
vn 0.0787455 -0.0331997 0.996342
vn 0.0717908 0.297658 0.951969
vn -0.0424841 0.327423 0.943922
vn -0.00596935 -0.0629258 0.998
vn 0 -0.316228 0.948683
vn 0.0787455 -0.0331997 0.996342
vn -0.00596935 -0.0629258 0.998
vn 0 -0.316228 0.948683
vn -0.0249264 0.0750483 -0.996868
vn 0.661542 0.141073 -0.736519
vn 0.577403 0.63653 -0.511307
vn 0.137841 0.672052 -0.727562
vn 0.0215762 -0.0639224 -0.997722
vn 0.67572 0.0198704 -0.73689
vn 0.661542 0.141073 -0.736519
vn -0.0249264 0.0750483 -0.996868
vn 0.293 0.628849 -0.720208
vn 0.671762 0.511716 -0.535614
vn 0.67572 0.0198704 -0.73689
vn 0.0215762 -0.0639224 -0.997722
vn 0.855276 0.49308 -0.159297
vn 0.671762 0.511716 -0.535614
vn 0.293 0.628849 -0.720208
vn 0.364133 0.891004 -0.271145
vn 0.815879 0.469014 0.338182
vn 0.855276 0.49308 -0.159297
vn 0.364133 0.891004 -0.271145
vn 0.355192 0.854741 0.378492
vn 0.366341 0.445329 0.816993
vn 0.815879 0.469014 0.338182
vn 0.355192 0.854741 0.378492
vn 0.161986 0.520372 0.838435
vn 0.383803 0.192564 0.903114
vn 0.366341 0.445329 0.816993
vn 0.161986 0.520372 0.838435
vn 0.0717908 0.297658 0.951969
vn 0.515536 0.195394 0.834293
vn 0.383803 0.192564 0.903114
vn 0.0717908 0.297658 0.951969
vn 0.0787455 -0.0331997 0.996342
vn 0.464991 0.348743 0.813734
vn 0.515536 0.195394 0.834293
vn 0.0787455 -0.0331997 0.996342
vn 0 -0.316228 0.948683
vn 0.77986 0.584895 0.222973
vn 0.956214 0.111508 0.270594
vn 0.515536 0.195394 0.834293
vn 0.464991 0.348743 0.813734
vn 0.956214 0.111508 0.270594
vn 0.94608 -0.099011 0.308432
vn 0.383803 0.192564 0.903114
vn 0.515536 0.195394 0.834293
vn 0.94608 -0.099011 0.308432
vn 0.815879 0.469014 0.338182
vn 0.366341 0.445329 0.816993
vn 0.383803 0.192564 0.903114
vn 0.799747 0.59981 -0.025172
vn 0.988193 0.151741 -0.0211925
vn 0.956214 0.111508 0.270594
vn 0.77986 0.584895 0.222973
vn 0.988193 0.151741 -0.0211925
vn 0.996793 -0.0609262 -0.0518843
vn 0.94608 -0.099011 0.308432
vn 0.956214 0.111508 0.270594
vn 0.996793 -0.0609262 -0.0518843
vn 0.855276 0.49308 -0.159297
vn 0.815879 0.469014 0.338182
vn 0.94608 -0.099011 0.308432
vn 0.577403 0.63653 -0.511307
vn 0.661542 0.141073 -0.736519
vn 0.988193 0.151741 -0.0211925
vn 0.799747 0.59981 -0.025172
vn 0.661542 0.141073 -0.736519
vn 0.67572 0.0198704 -0.73689
vn 0.996793 -0.0609262 -0.0518843
vn 0.988193 0.151741 -0.0211925
vn 0.67572 0.0198704 -0.73689
vn 0.671762 0.511716 -0.535614
vn 0.855276 0.49308 -0.159297
vn 0.996793 -0.0609262 -0.0518843
g Default
usemtl Default
s 1
f 12/10/1 13/5/2 2/7/3 1/11/4
f 11/13/5 14/8/6 13/5/7 12/10/8
f 10/9/9 9/6/10 14/8/11 11/13/12
f 13/5/13 15/4/14 3/2/15 2/7/16
f 14/56/17 16/53/18 15/57/19 13/59/20
f 9/6/21 8/3/22 16/1/23 14/8/24
f 15/57/25 5/50/26 4/49/27 3/54/28
f 16/53/29 6/51/30 5/50/31 15/57/32
f 8/55/33 7/46/34 6/51/35 16/53/36
f 5/50/37 19/47/38 18/44/39 4/49/40
f 6/51/41 20/45/42 19/47/43 5/50/44
f 7/46/45 21/48/46 20/45/47 6/51/48
f 22/52/49 21/48/50 7/46/51 8/55/52
f 23/58/53 22/52/54 8/55/55 9/60/56
f 24/14/57 23/12/58 9/6/59 10/9/60
f 25/17/61 24/14/62 10/9/63 11/13/64
f 26/16/65 25/17/66 11/13/67 12/10/68
f 17/15/69 26/16/70 12/10/71 1/11/72
f 19/47/73 29/41/74 28/42/75 18/44/76
f 20/45/77 30/43/78 29/41/79 19/47/80
f 21/48/81 31/40/82 30/43/83 20/45/84
f 32/38/85 31/40/86 21/48/87 22/52/88
f 33/25/89 32/38/90 22/52/91 23/12/92
f 34/22/93 33/25/94 23/12/95 24/14/96
f 35/20/97 34/22/98 24/14/99 25/17/100
f 36/19/101 35/20/102 25/17/103 26/16/104
f 27/18/105 36/19/106 26/16/107 17/15/108
f 29/41/109 41/39/110 40/36/111 28/42/112
f 30/43/113 42/35/114 41/39/115 29/41/116
f 31/40/117 43/37/118 42/35/119 30/43/120
f 44/31/121 43/37/122 31/40/123 32/38/124
f 45/30/125 44/31/126 32/38/127 33/25/128
f 46/26/129 45/30/130 33/25/131 34/22/132
f 47/24/133 46/26/134 34/22/135 35/20/136
f 48/21/137 47/24/138 35/20/139 36/19/140
f 37/23/141 48/21/142 36/19/143 27/18/144
f 38/28/145 49/27/146 48/21/147 37/23/148
f 49/27/149 50/29/150 47/24/151 48/21/152
f 50/29/153 45/30/154 46/26/155 47/24/156
f 39/32/157 51/34/158 49/27/159 38/28/160
f 51/34/161 52/33/162 50/29/163 49/27/164
f 52/33/165 44/31/166 45/30/167 50/29/168
f 40/36/169 41/39/170 51/34/171 39/32/172
f 41/39/173 42/35/174 52/33/175 51/34/176
f 42/35/177 43/37/178 44/31/179 52/33/180
